<svg width="120" height="120" viewBox="0 0 120 120" fill="none" xmlns="http://www.w3.org/2000/svg">
<rect width="120" height="120" rx="17" fill="#FF534A"/>
<path d="M85.9277 74.8181V45.0787C85.9277 43.6315 86.7848 42.8181 88.3097 42.8181H88.9294C90.4524 42.8181 91.3095 43.6315 91.3095 45.0787V74.8181C91.3095 76.2653 90.4524 77.0787 88.9294 77.0787H88.3097C86.7848 77.0787 85.9277 76.2653 85.9277 74.8181Z" fill="white"/>
<path d="M88.924 77.4441H88.3044C86.5698 77.4441 85.5328 76.4618 85.5328 74.8139V45.0745C85.5328 43.4283 86.568 42.4442 88.3044 42.4442H88.924C90.6586 42.4442 91.6957 43.4266 91.6957 45.0745V74.8139C91.6957 76.4618 90.6586 77.4441 88.924 77.4441ZM88.3044 43.1853C87.0021 43.1853 86.3138 43.8386 86.3138 45.0745V74.8139C86.3138 76.0498 87.0021 76.703 88.3044 76.703H88.924C90.2264 76.703 90.9146 76.0498 90.9146 74.8139V45.0745C90.9146 43.8386 90.2264 43.1853 88.924 43.1853H88.3044Z" fill="white"/>
<path d="M96.673 74.8181V45.0787C96.673 43.6315 97.5301 42.8181 99.055 42.8181H99.6746C101.198 42.8181 102.055 43.6315 102.055 45.0787V74.8181C102.055 76.2653 101.198 77.0787 99.6746 77.0787H99.055C97.5301 77.0787 96.673 76.2653 96.673 74.8181Z" fill="white"/>
<path d="M99.6716 77.4441H99.0519C97.3174 77.4441 96.2803 76.4618 96.2803 74.8139V45.0745C96.2803 43.4283 97.3155 42.4442 99.0519 42.4442H99.6716C101.406 42.4442 102.443 43.4266 102.443 45.0745V74.8139C102.441 76.4618 101.406 77.4441 99.6716 77.4441ZM99.0519 43.1853C97.7496 43.1853 97.0614 43.8386 97.0614 45.0745V74.8139C97.0614 76.0498 97.7496 76.703 99.0519 76.703H99.6716C100.974 76.703 101.662 76.0498 101.662 74.8139V45.0745C101.662 43.8386 100.974 43.1853 99.6716 43.1853H99.0519Z" fill="white"/>
<path d="M32.0896 76.7878C25.0882 76.7878 21.8973 74.0307 21.8973 66.1205V54.8212H20.3259C18.8028 54.8212 17.9439 54.0976 17.9439 52.8318C17.9439 51.5659 18.6581 50.8881 19.9438 50.8881H21.8954V45.955C22.029 44.985 22.5373 44.0871 23.4371 43.5765C24.2533 43.1118 25.4332 42.8741 26.2885 43.3758C27.0027 43.7948 27.2754 44.6065 27.2754 45.367V50.8881H32.943C34.466 50.8881 35.325 51.5659 35.325 52.8318C35.325 54.0976 34.4679 54.8212 32.943 54.8212H27.2754V65.5343C27.2754 70.867 28.7521 72.7209 32.8947 72.7209C34.3714 72.7209 35.3324 73.2138 35.466 74.4374C35.6181 75.8159 34.9799 76.6064 33.4661 76.742C32.9949 76.7825 32.5181 76.7878 32.0896 76.7878Z" fill="white"/>
<path d="M32.0912 77.1614C24.574 77.1614 21.5093 73.9642 21.5093 66.1244V55.1949H20.3275C18.5929 55.1949 17.5559 54.3128 17.5559 52.8357C17.5559 51.3656 18.4278 50.5223 19.9454 50.5223H21.5074L21.5111 45.9114C21.6688 44.7618 22.2996 43.797 23.2402 43.2635C24.0824 42.7847 25.4404 42.4449 26.4978 43.0663C27.2436 43.5047 27.6703 44.3445 27.6703 45.3727V50.5241H32.9483C34.7088 50.5241 35.7199 51.3674 35.7199 52.8375C35.7199 54.3146 34.6847 55.1967 32.9483 55.1967H27.6703V65.54C27.6703 70.6368 28.9893 72.3551 32.9 72.3551C35.1615 72.3551 35.757 73.4695 35.859 74.4044C35.9462 75.2019 35.7904 75.841 35.3915 76.3023C34.9908 76.7653 34.3582 77.04 33.5085 77.1157C33.0113 77.1544 32.516 77.1597 32.0912 77.1614ZM19.9454 51.2618C18.8619 51.2618 18.3351 51.7759 18.3351 52.8357C18.3351 54.1737 19.4185 54.4537 20.3257 54.4537H22.2866V66.1244C22.2866 73.5329 25.0341 76.4202 32.0875 76.4202C32.4956 76.4185 32.9705 76.4149 33.4343 76.3762C34.0669 76.3199 34.5233 76.1368 34.7849 75.8305C35.0464 75.5276 35.1448 75.0716 35.0798 74.4783C35.0149 73.8832 34.7181 73.0928 32.8963 73.0928C28.5144 73.0928 26.8856 71.0452 26.8856 65.5364V54.4537H32.9427C33.8517 54.4537 34.9333 54.1737 34.9333 52.8357C34.9333 51.7917 34.2636 51.2618 32.9427 51.2618H26.8856V45.3709C26.8856 45.0083 26.8076 44.1192 26.0823 43.6931C25.3736 43.2759 24.3421 43.4942 23.6353 43.8956C22.8969 44.3163 22.4165 45.0558 22.2829 45.9818V51.2618H19.9454Z" fill="white"/>
<path d="M51.6758 50.7609C53.2954 50.7609 54.1043 51.7556 53.915 53.201L53.8668 53.5619C53.724 55.0074 52.8186 55.5514 51.2473 55.5514C46.7708 55.6412 44.628 58.7151 44.628 64.1394V74.6693C44.628 76.1147 43.771 76.9299 42.246 76.9299H41.6746C40.1515 76.9299 39.2944 76.1165 39.2944 74.6693V53.3366C39.2944 51.8912 40.1515 51.076 41.6746 51.076H42.246C43.7691 51.076 44.628 51.8436 44.628 53.245V55.4141C45.487 53.1095 47.678 50.7609 51.6758 50.7609Z" fill="white"/>
<path d="M42.2422 77.2991H41.6708C39.9362 77.2991 38.8992 76.3167 38.8992 74.6688V53.336C38.8992 51.6899 39.9344 50.7058 41.6708 50.7058H42.2422C43.9768 50.7058 45.0138 51.6547 45.0138 53.2463V53.7779C46.3866 51.66 48.7279 50.4258 51.5533 50.3906H51.5552H51.6739C52.5532 50.3906 53.2656 50.6582 53.7368 51.1635C54.2155 51.6793 54.4103 52.3994 54.299 53.2463L54.2507 53.6089C54.0967 55.1618 53.1135 55.9223 51.2435 55.9223C47.112 56.005 45.0138 58.7709 45.0138 64.1388V74.6688C45.0138 76.3167 43.9786 77.2991 42.2422 77.2991ZM41.6708 51.447C40.3685 51.447 39.6802 52.1001 39.6802 53.336V74.6688C39.6802 75.9047 40.3685 76.5579 41.6708 76.5579H42.2422C43.5445 76.5579 44.2328 75.9047 44.2328 74.6688V64.1388C44.2328 60.1177 45.4479 55.2973 51.2342 55.1811C52.7109 55.1811 53.3565 54.7023 53.4734 53.528L53.5216 53.1547C53.6051 52.5244 53.4753 52.005 53.1487 51.6529C52.8371 51.3184 52.3436 51.1389 51.7147 51.1301H51.6702C47.1231 51.1301 45.4832 54.2128 44.9897 55.5385L44.2309 57.572V53.2463C44.2309 52.0526 43.5612 51.447 42.2403 51.447H41.6708Z" fill="white"/>
<path d="M54.4924 63.5062C54.4924 55.552 60.1117 50.0837 68.2559 50.0837C76.1608 50.0837 81.2106 55.1013 81.5427 62.5573C81.5909 64.0485 80.6856 64.8161 79.1607 64.8161H59.826C60.0171 69.8337 63.3026 72.6805 68.5899 72.6805C71.5433 72.6805 73.4003 71.957 75.1145 70.5115C76.1627 69.6524 76.8287 68.9288 78.1626 69.2457L78.734 69.3812C80.3999 69.7879 80.7338 70.6471 79.8285 71.9129C77.4483 75.258 73.5896 76.9305 68.4934 76.9305C60.0171 76.9305 54.4924 71.596 54.4924 63.5062ZM76.4948 60.8407C76.1145 56.7281 73.161 54.1066 68.3506 54.1066C63.7794 54.1066 60.5867 56.3654 59.9689 60.8407H76.4948Z" fill="white"/>
<path d="M68.4966 77.2978C64.2353 77.2978 60.6195 75.988 58.039 73.5091C55.4659 71.0373 54.1042 67.576 54.1042 63.5038C54.1042 59.5038 55.4659 56.0619 58.0427 53.5513C60.6214 51.039 64.1536 49.7098 68.2573 49.7098C76.2178 49.7098 81.5866 54.745 81.9354 62.539C81.9614 63.3559 81.7351 64.0038 81.262 64.4668C80.7815 64.9369 80.0561 65.1851 79.1657 65.1851H60.2411C60.5676 69.7186 63.5915 72.3084 68.5931 72.3084C71.296 72.3084 73.1104 71.7063 74.858 70.2327C74.9693 70.1411 75.0713 70.0548 75.1715 69.9721C76.0805 69.2115 76.8653 68.5531 78.2585 68.8858L78.8299 69.0214C79.7983 69.2573 80.3993 69.657 80.6201 70.2098C80.8335 70.745 80.6776 71.3876 80.1545 72.1182C77.7075 75.5548 73.7857 77.2978 68.4966 77.2978ZM68.2591 50.451C64.3688 50.451 61.0295 51.701 58.603 54.0672C56.1708 56.4369 54.8852 59.701 54.8852 63.5038C54.8852 71.4334 60.2281 76.5566 68.4966 76.5566C73.5111 76.5566 77.2159 74.9228 79.5089 71.7027C79.8818 71.1816 80.0098 70.7679 79.891 70.4704C79.7352 70.0795 79.1249 69.8559 78.6407 69.7379L78.0711 69.6041C77.0749 69.3682 76.5517 69.8048 75.6891 70.5284C75.587 70.6147 75.4813 70.701 75.3737 70.7907C73.4981 72.3735 71.4686 73.0496 68.5949 73.0496C63.0591 73.0496 59.6382 69.9756 59.4415 64.8277L59.4267 64.444H79.1675C79.8521 64.444 80.3697 64.2785 80.7054 63.951C81.0264 63.6376 81.1785 63.171 81.16 62.5672C80.9986 58.9721 79.7222 55.9334 77.4682 53.7837C75.1808 51.6024 71.9973 50.451 68.2591 50.451ZM76.9246 61.208H59.5287L59.5862 60.789C60.2058 56.3049 63.4023 53.7327 68.3556 53.7327C73.2885 53.7327 76.4775 56.377 76.8875 60.8048L76.9246 61.208ZM60.4266 60.4668H76.0638C75.5407 56.7045 72.6874 54.4739 68.3556 54.4739C63.9273 54.4739 61.1279 56.5971 60.4266 60.4668Z" fill="white"/>
</svg>
